<svg width="399" height="398" viewBox="0 0 399 398" fill="none" xmlns="http://www.w3.org/2000/svg">
<g filter="url(#filter0_di_239_132)">
<rect x="204.503" width="280" height="282.234" rx="30" transform="rotate(46.2355 204.503 0)" fill="white"/>
</g>
<g clip-path="url(#clip0_239_132)">
<path d="M295.441 202.745L297.576 189.363C297.576 189.363 236.69 140.208 220.284 123.649C218.421 121.765 214.932 117.896 211.735 117.387C208.196 116.822 203.546 119.662 201.051 120.966C181.195 131.412 110.363 157.884 110.363 157.884L107.976 172.869L295.443 202.738L295.441 202.745Z" fill="url(#paint0_linear_239_132)"/>
<path d="M278.852 306.823C278.236 310.692 274.595 313.334 270.727 312.717L97.2793 285.08C93.4109 284.463 90.7687 280.822 91.3855 276.954L108.827 167.524C109.444 163.656 113.085 161.014 116.953 161.631L290.394 189.266C294.269 189.885 296.904 193.523 296.286 197.398L278.846 306.821L278.852 306.823Z" fill="url(#paint1_linear_239_132)"/>
<path d="M293.128 110.564L131.376 84.7954L103.284 261.13L265.036 286.899L293.128 110.564Z" fill="url(#paint2_linear_239_132)"/>
<path d="M221.352 149.947L223.951 143.431L240.028 145.991L223.811 188.175C222.804 190.849 222.225 192.628 222.086 193.517C221.932 194.453 222.05 195.225 222.436 195.823C222.813 196.426 223.336 196.773 223.985 196.881C226.175 197.229 229.234 196.256 233.16 193.945C237.086 191.635 240.732 188.223 244.095 183.702C247.457 179.181 249.604 173.992 250.537 168.151C251.313 163.283 251.123 158.544 249.962 153.95C248.801 149.356 246.725 145.195 243.743 141.47C240.758 137.751 236.836 134.584 231.989 131.979C227.136 129.372 221.463 127.551 214.969 126.523C208.353 125.464 202.149 125.364 196.354 126.208C190.557 127.058 185.31 128.757 180.615 131.318C175.92 133.88 171.79 137.309 168.237 141.617C165.102 145.365 162.483 149.649 160.376 154.475C158.278 159.297 156.811 164.332 155.971 169.57C154.864 176.553 155.234 183.154 157.094 189.385C158.95 195.607 162.216 201.103 166.893 205.866C171.564 210.626 177.528 214.426 184.775 217.269C192.023 220.112 200.455 221.798 210.064 222.333C217.717 222.637 224.352 221.946 229.97 220.261C235.588 218.576 240.564 215.75 244.901 211.776L257.871 213.841C255.067 217.847 251.698 221.286 247.764 224.16C243.833 227.027 239.407 229.269 234.488 230.879C229.57 232.489 224.185 233.454 218.35 233.771C212.514 234.088 206.27 233.718 199.611 232.654C189.62 231.067 180.842 228.325 173.263 224.43C165.684 220.536 159.555 215.693 154.881 209.888C150.206 204.083 147.017 197.547 145.304 190.26C143.591 182.974 143.4 175.188 144.717 166.904C146.096 158.258 148.819 150.407 152.9 143.357C156.981 136.306 162.175 130.441 168.474 125.76C174.771 121.086 182.084 117.809 190.394 115.924C198.704 114.039 207.574 113.858 216.992 115.353C224.706 116.587 231.595 118.841 237.671 122.117C243.747 125.394 248.736 129.513 252.657 134.464C256.569 139.421 259.277 144.984 260.769 151.151C262.26 157.317 262.448 163.891 261.338 170.881C260.471 176.323 258.645 181.495 255.868 186.398C253.089 191.308 249.549 195.553 245.254 199.136C240.959 202.719 236.162 205.323 230.861 206.96C225.563 208.584 220.072 208.95 214.392 208.044C211.104 207.521 208.637 206.557 206.984 205.151C205.338 203.747 204.4 201.771 204.179 199.241C200.089 202.169 195.679 203.725 190.943 203.909C186.207 204.093 181.833 202.958 177.813 200.502C173.792 198.052 170.784 194.525 168.796 189.921C166.801 185.316 166.293 179.949 167.272 173.822C168.284 167.448 170.657 161.397 174.379 155.659C178.098 149.927 182.806 145.497 188.488 142.363C194.17 139.229 200.194 138.171 206.574 139.185C213.884 140.351 218.802 143.948 221.339 149.965L221.352 149.947ZM183.014 176.182C182.238 181.051 182.662 184.951 184.273 187.873C185.892 190.796 188.342 192.518 191.63 193.041C195.443 193.648 199.049 192.662 202.436 190.08C205.823 187.498 208.636 184.002 210.884 179.594C213.124 175.184 214.596 170.812 215.291 166.461C215.633 164.314 215.688 162.333 215.453 160.526C215.219 158.719 214.708 157.09 213.923 155.633C213.139 154.175 212.097 152.997 210.804 152.107C209.513 151.211 207.971 150.625 206.179 150.343C202.604 149.774 199.171 150.652 195.864 152.98C192.565 155.303 189.781 158.566 187.525 162.766C185.276 166.968 183.773 171.44 183.012 176.189L183.014 176.182Z" fill="url(#paint3_linear_239_132)"/>
<path d="M278.95 306.207L296.296 197.364C296.906 193.516 294.267 189.891 290.398 189.274L282.57 188.027C282.57 188.027 229.485 217.259 210.669 231.82C208.533 233.48 204.124 236.557 203.648 239.507C203.134 242.769 206.65 247.205 208.296 249.571C221.386 268.419 261.112 310.513 261.112 310.513L270.836 312.061C274.705 312.677 278.346 310.057 278.956 306.209L278.95 306.207Z" fill="url(#paint4_linear_239_132)"/>
<path d="M91.5493 276.337L108.896 167.494C109.506 163.646 113.14 161.024 117.018 161.636L124.852 162.885C124.852 162.885 166.221 207.168 179.583 226.858C181.1 229.096 184.335 233.4 183.868 236.346C183.347 239.605 178.622 242.73 176.322 244.47C158.022 258.319 107.185 285.979 107.185 285.979L97.4603 284.431C93.5919 283.815 90.9522 280.189 91.5627 276.341L91.5493 276.337Z" fill="url(#paint5_linear_239_132)"/>
<path d="M193.861 229.531C190.322 228.966 185.674 231.799 183.177 233.11C163.328 243.558 92.4963 270.03 92.4963 270.03L91.3942 276.949C90.7774 280.818 93.4196 284.458 97.288 285.075L270.735 312.712C274.61 313.331 278.244 310.687 278.861 306.818L279.711 301.503C279.711 301.503 218.825 252.348 202.421 235.781C200.558 233.898 197.069 230.029 193.872 229.52L193.861 229.531Z" fill="url(#paint6_linear_239_132)"/>
</g>
<defs>
<filter id="filter0_di_239_132" x="9.09351" y="12.4165" width="380.668" height="380.6" filterUnits="userSpaceOnUse" color-interpolation-filters="sRGB">
<feFlood flood-opacity="0" result="BackgroundImageFix"/>
<feColorMatrix in="SourceAlpha" type="matrix" values="0 0 0 0 0 0 0 0 0 0 0 0 0 0 0 0 0 0 127 0" result="hardAlpha"/>
<feOffset dy="4"/>
<feGaussianBlur stdDeviation="2"/>
<feComposite in2="hardAlpha" operator="out"/>
<feColorMatrix type="matrix" values="0 0 0 0 0 0 0 0 0 0 0 0 0 0 0 0 0 0 0.25 0"/>
<feBlend mode="normal" in2="BackgroundImageFix" result="effect1_dropShadow_239_132"/>
<feBlend mode="normal" in="SourceGraphic" in2="effect1_dropShadow_239_132" result="shape"/>
<feColorMatrix in="SourceAlpha" type="matrix" values="0 0 0 0 0 0 0 0 0 0 0 0 0 0 0 0 0 0 127 0" result="hardAlpha"/>
<feOffset dy="9"/>
<feGaussianBlur stdDeviation="2"/>
<feComposite in2="hardAlpha" operator="arithmetic" k2="-1" k3="1"/>
<feColorMatrix type="matrix" values="0 0 0 0 0 0 0 0 0 0 0 0 0 0 0 0 0 0 0.25 0"/>
<feBlend mode="normal" in2="shape" result="effect2_innerShadow_239_132"/>
</filter>
<linearGradient id="paint0_linear_239_132" x1="200.233" y1="197.478" x2="212.961" y2="117.582" gradientUnits="userSpaceOnUse">
<stop stop-color="#A7A9AC"/>
<stop offset="0.07" stop-color="#B1B3B6"/>
<stop offset="0.32" stop-color="#D7D8DA"/>
<stop offset="0.45" stop-color="#E6E7E8"/>
<stop offset="0.58" stop-color="#E1E2E3"/>
<stop offset="0.73" stop-color="#D4D5D6"/>
<stop offset="0.88" stop-color="#BDBFC1"/>
<stop offset="1" stop-color="#A7A9AC"/>
</linearGradient>
<linearGradient id="paint1_linear_239_132" x1="184.076" y1="298.894" x2="203.742" y2="175.453" gradientUnits="userSpaceOnUse">
<stop stop-color="#A7A9AC"/>
<stop offset="0.22" stop-color="#BDBFC1"/>
<stop offset="0.5" stop-color="#D4D5D6"/>
<stop offset="0.76" stop-color="#E1E2E3"/>
<stop offset="1" stop-color="#E6E7E8"/>
</linearGradient>
<linearGradient id="paint2_linear_239_132" x1="184.21" y1="273.987" x2="212.301" y2="97.6593" gradientUnits="userSpaceOnUse">
<stop stop-color="#136A7D"/>
<stop offset="1" stop-color="#0B3993"/>
</linearGradient>
<linearGradient id="paint3_linear_239_132" x1="194.756" y1="231.857" x2="213.409" y2="114.771" gradientUnits="userSpaceOnUse">
<stop stop-color="#808285"/>
<stop offset="0.11" stop-color="#999A9D"/>
<stop offset="0.29" stop-color="#BDBEC0"/>
<stop offset="0.47" stop-color="#DADADB"/>
<stop offset="0.65" stop-color="#EEEEEF"/>
<stop offset="0.83" stop-color="#FAFAFB"/>
<stop offset="1" stop-color="white"/>
</linearGradient>
<linearGradient id="paint4_linear_239_132" x1="192.729" y1="236.651" x2="287.686" y2="251.779" gradientUnits="userSpaceOnUse">
<stop stop-color="#939598"/>
<stop offset="0.2" stop-color="#B8BABC"/>
<stop offset="0.39" stop-color="#D7D8D9"/>
<stop offset="0.56" stop-color="#EAEBEB"/>
<stop offset="0.68" stop-color="#F1F2F2"/>
<stop offset="0.79" stop-color="#ECEDED"/>
<stop offset="0.92" stop-color="#DEE0E0"/>
<stop offset="1" stop-color="#D1D3D4"/>
</linearGradient>
<linearGradient id="paint5_linear_239_132" x1="195.03" y1="236.793" x2="100.066" y2="221.664" gradientUnits="userSpaceOnUse">
<stop stop-color="#939598"/>
<stop offset="0.2" stop-color="#B8BABC"/>
<stop offset="0.39" stop-color="#D7D8D9"/>
<stop offset="0.56" stop-color="#EAEBEB"/>
<stop offset="0.68" stop-color="#F1F2F2"/>
<stop offset="0.79" stop-color="#ECEDED"/>
<stop offset="0.92" stop-color="#DEE0E0"/>
<stop offset="1" stop-color="#D1D3D4"/>
</linearGradient>
<linearGradient id="paint6_linear_239_132" x1="184.076" y1="298.893" x2="195.096" y2="229.719" gradientUnits="userSpaceOnUse">
<stop stop-color="#A7A9AC"/>
<stop offset="0.12" stop-color="#BDBFC1"/>
<stop offset="0.27" stop-color="#D4D5D6"/>
<stop offset="0.42" stop-color="#E1E2E3"/>
<stop offset="0.55" stop-color="#E6E7E8"/>
<stop offset="0.68" stop-color="#D7D8DA"/>
<stop offset="0.93" stop-color="#B1B3B6"/>
<stop offset="1" stop-color="#A7A9AC"/>
</linearGradient>
<clipPath id="clip0_239_132">
<rect width="207.176" height="225.14" fill="white" transform="translate(138.475 62.1309) rotate(17.3918)"/>
</clipPath>
</defs>
</svg>
